<svg width="800" height="800" viewBox="0 0 1200 1200" fill="none" xmlns="http://www.w3.org/2000/svg">
<rect width="1200.01" height="1200.01" rx="600.005" fill="#1AFFB6"/>
<path d="M936.296 440.809C947.246 403.809 981.696 346.134 901.246 249.834C820.671 153.484 628.396 203.559 704.896 342.384C717.546 243.934 807.871 253.634 858.371 314.209C877.321 339.509 863.096 380.234 863.096 380.234C863.096 380.234 771.396 359.209 768.021 477.809C766.646 503.334 734.471 542.009 731.796 543.934C674.671 583.959 529.821 535.884 395.821 545.409C276.421 546.684 221.171 613.384 245.921 694.034C261.396 701.234 269.021 633.484 277.046 636.909C285.096 640.284 263.071 678.159 267.521 694.034C271.971 709.959 288.471 759.909 282.121 780.409C275.771 800.959 225.546 850.109 225.546 875.734C225.546 901.359 229.196 963.759 229.196 963.759C229.196 963.759 225.346 1000.01 232.996 1000.01C240.646 1000.01 282.071 998.634 291.946 998.634C301.821 998.634 286.996 965.809 266.671 963.734C266.671 955.934 271.346 879.009 271.346 879.009L331.021 807.209C331.021 807.209 337.896 877.584 347.421 891.584C356.971 905.609 390.121 968.934 390.121 968.934C390.121 968.934 388.046 995.509 394.296 995.509C400.546 995.509 434.921 996.034 447.421 996.034C459.921 996.034 444.721 960.234 425.446 962.309C418.146 950.859 401.746 887.409 396.846 873.434C391.996 859.384 394.521 828.284 395.171 807.309C395.821 786.334 418.746 802.359 517.221 801.659C615.671 801.034 637.546 790.709 637.546 790.709C637.546 790.709 663.321 954.434 664.796 966.359C666.746 979.359 662.646 993.409 669.421 993.409C676.196 993.409 717.746 993.284 729.271 993.284C740.846 993.284 729.821 955.634 702.946 955.684C697.671 943.109 693.571 864.984 693.571 864.984L736.546 786.084C736.546 786.084 802.946 853.559 812.321 871.234C821.696 888.959 817.246 936.584 817.246 936.584C817.246 936.584 808.396 947.009 805.771 953.784C812.221 964.084 828.471 976.484 842.746 990.759C861.496 986.584 862.871 962.059 858.371 948.059C853.921 934.084 846.946 925.134 846.946 925.134C846.946 925.134 858.921 881.909 854.221 866.284C849.521 850.659 797.446 734.509 784.946 698.609C772.446 662.659 844.896 542.884 844.896 542.884C844.896 542.884 944.596 598.159 971.446 572.934C988.771 557.109 925.371 477.834 936.296 440.809Z" fill="black"/>
</svg>
